<mxfile host="app.diagrams.net" agent="Mozilla/5.0 (Windows NT 10.0; Win64; x64) AppleWebKit/537.36 (KHTML, like Gecko) Chrome/131.0.0.0 Safari/537.36 Edg/131.0.0.0" version="26.0.3">
  <diagram name="Page-1" id="gEL889tH-eNSq187wz8S">
    <mxGraphModel dx="1160" dy="775" grid="1" gridSize="10" guides="1" tooltips="1" connect="1" arrows="1" fold="1" page="1" pageScale="1" pageWidth="850" pageHeight="1100" math="0" shadow="0">
      <root>
        <mxCell id="0" />
        <mxCell id="1" parent="0" />
        <mxCell id="WixgId_MYOPgr9kNpltZ-22" value="" style="rounded=0;whiteSpace=wrap;html=1;fillColor=none;dashed=1;" parent="1" vertex="1">
          <mxGeometry x="70" y="330" width="460" height="360" as="geometry" />
        </mxCell>
        <mxCell id="WixgId_MYOPgr9kNpltZ-19" value="" style="rounded=0;whiteSpace=wrap;html=1;fillColor=none;dashed=1;" parent="1" vertex="1">
          <mxGeometry x="540" y="130" width="290" height="560" as="geometry" />
        </mxCell>
        <mxCell id="WixgId_MYOPgr9kNpltZ-17" value="" style="rounded=0;whiteSpace=wrap;html=1;fillColor=none;dashed=1;" parent="1" vertex="1">
          <mxGeometry x="70" y="130" width="460" height="190" as="geometry" />
        </mxCell>
        <mxCell id="WixgId_MYOPgr9kNpltZ-1" value="OpenAPI Parser" style="rounded=1;whiteSpace=wrap;html=1;fillColor=light-dark(#F0F4FC,#3B4453);" parent="1" vertex="1">
          <mxGeometry x="150" y="160" width="120" height="60" as="geometry" />
        </mxCell>
        <mxCell id="WixgId_MYOPgr9kNpltZ-2" value="Operation Dependency Graph Parser" style="rounded=1;whiteSpace=wrap;html=1;fillColor=light-dark(#F0F4FC,#3B4453);" parent="1" vertex="1">
          <mxGeometry x="360" y="240" width="120" height="60" as="geometry" />
        </mxCell>
        <mxCell id="WixgId_MYOPgr9kNpltZ-4" value="Operation Scheduler" style="rounded=1;whiteSpace=wrap;html=1;fillColor=light-dark(#F0F4FC,#3B4453);" parent="1" vertex="1">
          <mxGeometry x="120" y="410" width="120" height="60" as="geometry" />
        </mxCell>
        <mxCell id="WixgId_MYOPgr9kNpltZ-5" value="Resource Pool" style="shape=cylinder3;whiteSpace=wrap;html=1;boundedLbl=1;backgroundOutline=1;size=15;fillColor=light-dark(#DFF5E5,#486850);" parent="1" vertex="1">
          <mxGeometry x="615" y="510" width="140" height="70" as="geometry" />
        </mxCell>
        <mxCell id="WixgId_MYOPgr9kNpltZ-6" value="Test Driver" style="rounded=1;whiteSpace=wrap;html=1;fillColor=light-dark(#F0F4FC,#3B4453);" parent="1" vertex="1">
          <mxGeometry x="120" y="580" width="120" height="60" as="geometry" />
        </mxCell>
        <mxCell id="WixgId_MYOPgr9kNpltZ-10" value="Operation I&lt;span style=&quot;white-space: pre;&quot; data-slate-fragment=&quot;JTVCJTdCJTIydHlwZSUyMiUzQSUyMnBhcmFncmFwaCUyMiUyQyUyMmNoaWxkcmVuJTIyJTNBJTVCJTdCJTIyaWQlMjIlM0ElMjJwTHE0WmI2VzVNJTIyJTJDJTIycGFyYUlkeCUyMiUzQTAlMkMlMjJzcmMlMjIlM0ElMjJpbnN0YW50aWF0b3IlMjIlMkMlMjJkc3QlMjIlM0ElMjIlRTclOUUlQUMlRTUlOEYlOTglRTUlOTklQTglMjIlMkMlMjJtZXRhZGF0YSUyMiUzQSUyMiUyMiUyQyUyMm1ldGFEYXRhJTIyJTNBJTVCJTVEJTJDJTIydGV4dCUyMiUzQSUyMmluc3RhbnRpYXRvciUyMiU3RCU1RCU3RCU1RA==&quot;&gt;nstantiator&lt;/span&gt;" style="rounded=1;whiteSpace=wrap;html=1;fillColor=light-dark(#F0F4FC,#3B4453);" parent="1" vertex="1">
          <mxGeometry x="360" y="410" width="120" height="60" as="geometry" />
        </mxCell>
        <mxCell id="WixgId_MYOPgr9kNpltZ-11" value="OpenAPIs" style="strokeWidth=2;html=1;shape=mxgraph.flowchart.multi-document;whiteSpace=wrap;fillColor=light-dark(#DFF5E5,#4B567C);" parent="1" vertex="1">
          <mxGeometry x="166" y="50" width="88" height="60" as="geometry" />
        </mxCell>
        <mxCell id="WixgId_MYOPgr9kNpltZ-12" value="Test Service" style="ellipse;shape=cloud;whiteSpace=wrap;html=1;fillColor=light-dark(#DFF5E5,#574D6F);" parent="1" vertex="1">
          <mxGeometry x="210" y="730" width="150" height="100" as="geometry" />
        </mxCell>
        <mxCell id="WixgId_MYOPgr9kNpltZ-13" value="Inner Service Interfaces" style="shape=parallelogram;perimeter=parallelogramPerimeter;whiteSpace=wrap;html=1;fixedSize=1;fillColor=light-dark(#DFF5E5,#486850);" parent="1" vertex="1">
          <mxGeometry x="560" y="160" width="120" height="60" as="geometry" />
        </mxCell>
        <mxCell id="WixgId_MYOPgr9kNpltZ-14" value="Edge Service Interfaces" style="shape=parallelogram;perimeter=parallelogramPerimeter;whiteSpace=wrap;html=1;fixedSize=1;fillColor=light-dark(#DFF5E5,#486850);" parent="1" vertex="1">
          <mxGeometry x="700" y="160" width="120" height="60" as="geometry" />
        </mxCell>
        <mxCell id="WixgId_MYOPgr9kNpltZ-15" value="ODG (Operation Dependency Graph)" style="shape=parallelogram;perimeter=parallelogramPerimeter;whiteSpace=wrap;html=1;fixedSize=1;fillColor=light-dark(#DFF5E5,#486850);" parent="1" vertex="1">
          <mxGeometry x="625" y="240" width="120" height="60" as="geometry" />
        </mxCell>
        <mxCell id="WixgId_MYOPgr9kNpltZ-18" value="Parser" style="text;html=1;align=center;verticalAlign=middle;whiteSpace=wrap;rounded=0;fontSize=16;" parent="1" vertex="1">
          <mxGeometry x="70" y="130" width="60" height="30" as="geometry" />
        </mxCell>
        <mxCell id="WixgId_MYOPgr9kNpltZ-20" value="Data" style="text;html=1;align=center;verticalAlign=middle;whiteSpace=wrap;rounded=0;fontSize=16;" parent="1" vertex="1">
          <mxGeometry x="540" y="130" width="60" height="30" as="geometry" />
        </mxCell>
        <mxCell id="WixgId_MYOPgr9kNpltZ-23" value="Fuzzer" style="text;html=1;align=center;verticalAlign=middle;whiteSpace=wrap;rounded=0;fontSize=16;" parent="1" vertex="1">
          <mxGeometry x="70" y="330" width="60" height="30" as="geometry" />
        </mxCell>
        <mxCell id="WixgId_MYOPgr9kNpltZ-24" value="" style="endArrow=classic;html=1;rounded=0;exitX=0.5;exitY=0.88;exitDx=0;exitDy=0;exitPerimeter=0;entryX=0.5;entryY=0;entryDx=0;entryDy=0;" parent="1" source="WixgId_MYOPgr9kNpltZ-11" target="WixgId_MYOPgr9kNpltZ-1" edge="1">
          <mxGeometry width="50" height="50" relative="1" as="geometry">
            <mxPoint x="280" y="350" as="sourcePoint" />
            <mxPoint x="330" y="300" as="targetPoint" />
          </mxGeometry>
        </mxCell>
        <mxCell id="WixgId_MYOPgr9kNpltZ-26" value="" style="endArrow=none;html=1;rounded=0;exitX=1;exitY=0.5;exitDx=0;exitDy=0;entryX=0;entryY=0.5;entryDx=0;entryDy=0;" parent="1" source="WixgId_MYOPgr9kNpltZ-13" target="WixgId_MYOPgr9kNpltZ-14" edge="1">
          <mxGeometry width="50" height="50" relative="1" as="geometry">
            <mxPoint x="450" y="400" as="sourcePoint" />
            <mxPoint x="500" y="350" as="targetPoint" />
          </mxGeometry>
        </mxCell>
        <mxCell id="WixgId_MYOPgr9kNpltZ-27" value="" style="endArrow=classic;html=1;rounded=0;exitX=1;exitY=0.5;exitDx=0;exitDy=0;entryX=0;entryY=0.5;entryDx=0;entryDy=0;" parent="1" source="WixgId_MYOPgr9kNpltZ-1" target="WixgId_MYOPgr9kNpltZ-13" edge="1">
          <mxGeometry width="50" height="50" relative="1" as="geometry">
            <mxPoint x="460" y="420" as="sourcePoint" />
            <mxPoint x="510" y="370" as="targetPoint" />
          </mxGeometry>
        </mxCell>
        <mxCell id="WixgId_MYOPgr9kNpltZ-30" value="Parsed APIs" style="edgeLabel;html=1;align=center;verticalAlign=middle;resizable=0;points=[];" parent="WixgId_MYOPgr9kNpltZ-27" vertex="1" connectable="0">
          <mxGeometry x="0.0733" relative="1" as="geometry">
            <mxPoint as="offset" />
          </mxGeometry>
        </mxCell>
        <mxCell id="WixgId_MYOPgr9kNpltZ-29" value="" style="endArrow=classic;html=1;rounded=0;exitX=1;exitY=0.5;exitDx=0;exitDy=0;entryX=0;entryY=0.5;entryDx=0;entryDy=0;" parent="1" source="WixgId_MYOPgr9kNpltZ-2" target="WixgId_MYOPgr9kNpltZ-15" edge="1">
          <mxGeometry width="50" height="50" relative="1" as="geometry">
            <mxPoint x="540" y="440" as="sourcePoint" />
            <mxPoint x="590" y="390" as="targetPoint" />
          </mxGeometry>
        </mxCell>
        <mxCell id="WixgId_MYOPgr9kNpltZ-31" value="" style="endArrow=classic;html=1;rounded=0;exitX=0.5;exitY=1;exitDx=0;exitDy=0;entryX=0.5;entryY=0;entryDx=0;entryDy=0;" parent="1" source="WixgId_MYOPgr9kNpltZ-15" target="WixgId_MYOPgr9kNpltZ-4" edge="1">
          <mxGeometry width="50" height="50" relative="1" as="geometry">
            <mxPoint x="420" y="500" as="sourcePoint" />
            <mxPoint x="470" y="450" as="targetPoint" />
            <Array as="points">
              <mxPoint x="685" y="340" />
              <mxPoint x="180" y="340" />
            </Array>
          </mxGeometry>
        </mxCell>
        <mxCell id="WixgId_MYOPgr9kNpltZ-32" value="" style="endArrow=classic;html=1;rounded=0;exitX=0.5;exitY=1;exitDx=0;exitDy=0;" parent="1" source="WixgId_MYOPgr9kNpltZ-14" edge="1">
          <mxGeometry width="50" height="50" relative="1" as="geometry">
            <mxPoint x="470" y="500" as="sourcePoint" />
            <mxPoint x="690" y="340" as="targetPoint" />
            <Array as="points">
              <mxPoint x="760" y="340" />
            </Array>
          </mxGeometry>
        </mxCell>
        <mxCell id="WixgId_MYOPgr9kNpltZ-33" value="" style="endArrow=classic;html=1;rounded=0;exitX=1;exitY=0.5;exitDx=0;exitDy=0;entryX=0;entryY=0.5;entryDx=0;entryDy=0;" parent="1" source="WixgId_MYOPgr9kNpltZ-4" target="WixgId_MYOPgr9kNpltZ-10" edge="1">
          <mxGeometry width="50" height="50" relative="1" as="geometry">
            <mxPoint x="340" y="510" as="sourcePoint" />
            <mxPoint x="390" y="460" as="targetPoint" />
          </mxGeometry>
        </mxCell>
        <mxCell id="WixgId_MYOPgr9kNpltZ-34" value="Abstract OP" style="edgeLabel;html=1;align=center;verticalAlign=middle;resizable=0;points=[];" parent="WixgId_MYOPgr9kNpltZ-33" vertex="1" connectable="0">
          <mxGeometry x="0.2833" y="-1" relative="1" as="geometry">
            <mxPoint as="offset" />
          </mxGeometry>
        </mxCell>
        <mxCell id="WixgId_MYOPgr9kNpltZ-38" value="" style="endArrow=classic;html=1;rounded=0;exitX=0;exitY=0.5;exitDx=0;exitDy=0;exitPerimeter=0;entryX=1;entryY=0.5;entryDx=0;entryDy=0;" parent="1" source="WixgId_MYOPgr9kNpltZ-5" target="WixgId_MYOPgr9kNpltZ-10" edge="1">
          <mxGeometry width="50" height="50" relative="1" as="geometry">
            <mxPoint x="450" y="510" as="sourcePoint" />
            <mxPoint x="500" y="460" as="targetPoint" />
            <Array as="points">
              <mxPoint x="570" y="545" />
              <mxPoint x="570" y="440" />
            </Array>
          </mxGeometry>
        </mxCell>
        <mxCell id="WixgId_MYOPgr9kNpltZ-39" value="Resource" style="edgeLabel;html=1;align=center;verticalAlign=middle;resizable=0;points=[];" parent="WixgId_MYOPgr9kNpltZ-38" vertex="1" connectable="0">
          <mxGeometry x="-0.037" y="-2" relative="1" as="geometry">
            <mxPoint as="offset" />
          </mxGeometry>
        </mxCell>
        <mxCell id="WixgId_MYOPgr9kNpltZ-42" value="Response Checker" style="rounded=1;whiteSpace=wrap;html=1;fillColor=light-dark(#F0F4FC,#3B4453);" parent="1" vertex="1">
          <mxGeometry x="360" y="580" width="120" height="60" as="geometry" />
        </mxCell>
        <mxCell id="WixgId_MYOPgr9kNpltZ-43" value="" style="endArrow=classic;html=1;rounded=0;exitX=0.5;exitY=1;exitDx=0;exitDy=0;entryX=0.5;entryY=0;entryDx=0;entryDy=0;" parent="1" source="WixgId_MYOPgr9kNpltZ-10" target="WixgId_MYOPgr9kNpltZ-6" edge="1">
          <mxGeometry width="50" height="50" relative="1" as="geometry">
            <mxPoint x="460" y="600" as="sourcePoint" />
            <mxPoint x="510" y="550" as="targetPoint" />
            <Array as="points">
              <mxPoint x="420" y="500" />
              <mxPoint x="180" y="500" />
            </Array>
          </mxGeometry>
        </mxCell>
        <mxCell id="WixgId_MYOPgr9kNpltZ-44" value="Operation" style="edgeLabel;html=1;align=center;verticalAlign=middle;resizable=0;points=[];" parent="WixgId_MYOPgr9kNpltZ-43" vertex="1" connectable="0">
          <mxGeometry x="-0.0364" relative="1" as="geometry">
            <mxPoint as="offset" />
          </mxGeometry>
        </mxCell>
        <mxCell id="WixgId_MYOPgr9kNpltZ-49" value="" style="endArrow=classic;html=1;rounded=0;exitX=0.5;exitY=1;exitDx=0;exitDy=0;entryX=0.08;entryY=0.52;entryDx=0;entryDy=0;entryPerimeter=0;" parent="1" source="WixgId_MYOPgr9kNpltZ-6" target="WixgId_MYOPgr9kNpltZ-12" edge="1">
          <mxGeometry width="50" height="50" relative="1" as="geometry">
            <mxPoint x="310" y="690" as="sourcePoint" />
            <mxPoint x="360" y="640" as="targetPoint" />
            <Array as="points">
              <mxPoint x="180" y="782" />
            </Array>
          </mxGeometry>
        </mxCell>
        <mxCell id="WixgId_MYOPgr9kNpltZ-50" value="Req" style="edgeLabel;html=1;align=center;verticalAlign=middle;resizable=0;points=[];" parent="WixgId_MYOPgr9kNpltZ-49" vertex="1" connectable="0">
          <mxGeometry x="-0.2174" relative="1" as="geometry">
            <mxPoint as="offset" />
          </mxGeometry>
        </mxCell>
        <mxCell id="WixgId_MYOPgr9kNpltZ-51" value="" style="endArrow=classic;html=1;rounded=0;exitX=0.875;exitY=0.5;exitDx=0;exitDy=0;exitPerimeter=0;entryX=0.5;entryY=1;entryDx=0;entryDy=0;" parent="1" source="WixgId_MYOPgr9kNpltZ-12" target="WixgId_MYOPgr9kNpltZ-42" edge="1">
          <mxGeometry width="50" height="50" relative="1" as="geometry">
            <mxPoint x="420" y="680" as="sourcePoint" />
            <mxPoint x="470" y="630" as="targetPoint" />
            <Array as="points">
              <mxPoint x="420" y="780" />
            </Array>
          </mxGeometry>
        </mxCell>
        <mxCell id="WixgId_MYOPgr9kNpltZ-52" value="Resp" style="edgeLabel;html=1;align=center;verticalAlign=middle;resizable=0;points=[];" parent="WixgId_MYOPgr9kNpltZ-51" vertex="1" connectable="0">
          <mxGeometry x="0.2594" relative="1" as="geometry">
            <mxPoint as="offset" />
          </mxGeometry>
        </mxCell>
        <mxCell id="WixgId_MYOPgr9kNpltZ-53" value="" style="endArrow=classic;html=1;rounded=0;exitX=1;exitY=0.5;exitDx=0;exitDy=0;entryX=0.5;entryY=1;entryDx=0;entryDy=0;entryPerimeter=0;" parent="1" source="WixgId_MYOPgr9kNpltZ-42" target="WixgId_MYOPgr9kNpltZ-5" edge="1">
          <mxGeometry width="50" height="50" relative="1" as="geometry">
            <mxPoint x="580" y="490" as="sourcePoint" />
            <mxPoint x="630" y="440" as="targetPoint" />
            <Array as="points">
              <mxPoint x="685" y="610" />
            </Array>
          </mxGeometry>
        </mxCell>
        <mxCell id="WixgId_MYOPgr9kNpltZ-54" value="New Resource" style="edgeLabel;html=1;align=center;verticalAlign=middle;resizable=0;points=[];" parent="WixgId_MYOPgr9kNpltZ-53" vertex="1" connectable="0">
          <mxGeometry x="-0.2176" y="-1" relative="1" as="geometry">
            <mxPoint as="offset" />
          </mxGeometry>
        </mxCell>
        <mxCell id="p903jVdUFC8UU20KhMWQ-1" value="" style="endArrow=classic;html=1;rounded=0;entryX=0;entryY=0.5;entryDx=0;entryDy=0;" edge="1" parent="1" target="WixgId_MYOPgr9kNpltZ-2">
          <mxGeometry width="50" height="50" relative="1" as="geometry">
            <mxPoint x="300" y="190" as="sourcePoint" />
            <mxPoint x="620" y="370" as="targetPoint" />
            <Array as="points">
              <mxPoint x="300" y="270" />
            </Array>
          </mxGeometry>
        </mxCell>
        <mxCell id="p903jVdUFC8UU20KhMWQ-2" value="Seed Queue" style="shape=cylinder3;whiteSpace=wrap;html=1;boundedLbl=1;backgroundOutline=1;size=15;fillColor=light-dark(#DFF5E5,#486850);" vertex="1" parent="1">
          <mxGeometry x="615" y="400" width="140" height="70" as="geometry" />
        </mxCell>
        <mxCell id="p903jVdUFC8UU20KhMWQ-3" value="" style="endArrow=classic;html=1;rounded=0;exitX=0.5;exitY=0;exitDx=0;exitDy=0;exitPerimeter=0;entryX=0.75;entryY=0;entryDx=0;entryDy=0;" edge="1" parent="1" source="p903jVdUFC8UU20KhMWQ-2" target="WixgId_MYOPgr9kNpltZ-4">
          <mxGeometry width="50" height="50" relative="1" as="geometry">
            <mxPoint x="640" y="550" as="sourcePoint" />
            <mxPoint x="690" y="500" as="targetPoint" />
            <Array as="points">
              <mxPoint x="685" y="380" />
              <mxPoint x="210" y="380" />
            </Array>
          </mxGeometry>
        </mxCell>
        <mxCell id="p903jVdUFC8UU20KhMWQ-4" value="" style="endArrow=classic;html=1;rounded=0;exitX=0;exitY=0.5;exitDx=0;exitDy=0;entryX=1;entryY=0.5;entryDx=0;entryDy=0;" edge="1" parent="1" source="WixgId_MYOPgr9kNpltZ-42" target="WixgId_MYOPgr9kNpltZ-6">
          <mxGeometry width="50" height="50" relative="1" as="geometry">
            <mxPoint x="640" y="550" as="sourcePoint" />
            <mxPoint x="690" y="500" as="targetPoint" />
          </mxGeometry>
        </mxCell>
        <mxCell id="p903jVdUFC8UU20KhMWQ-5" value="Feedback" style="edgeLabel;html=1;align=center;verticalAlign=middle;resizable=0;points=[];" vertex="1" connectable="0" parent="p903jVdUFC8UU20KhMWQ-4">
          <mxGeometry x="-0.0767" y="1" relative="1" as="geometry">
            <mxPoint as="offset" />
          </mxGeometry>
        </mxCell>
        <mxCell id="p903jVdUFC8UU20KhMWQ-6" value="" style="endArrow=classic;html=1;rounded=0;exitX=0.75;exitY=1;exitDx=0;exitDy=0;entryX=1;entryY=0;entryDx=0;entryDy=45;entryPerimeter=0;" edge="1" parent="1" source="WixgId_MYOPgr9kNpltZ-6" target="p903jVdUFC8UU20KhMWQ-2">
          <mxGeometry width="50" height="50" relative="1" as="geometry">
            <mxPoint x="640" y="550" as="sourcePoint" />
            <mxPoint x="690" y="500" as="targetPoint" />
            <Array as="points">
              <mxPoint x="210" y="670" />
              <mxPoint x="800" y="670" />
              <mxPoint x="800" y="445" />
            </Array>
          </mxGeometry>
        </mxCell>
        <mxCell id="p903jVdUFC8UU20KhMWQ-7" value="Interesting Testcases" style="edgeLabel;html=1;align=center;verticalAlign=middle;resizable=0;points=[];" vertex="1" connectable="0" parent="p903jVdUFC8UU20KhMWQ-6">
          <mxGeometry x="-0.2885" relative="1" as="geometry">
            <mxPoint as="offset" />
          </mxGeometry>
        </mxCell>
      </root>
    </mxGraphModel>
  </diagram>
</mxfile>
